<svg width="59" height="94" viewBox="0 0 59 94" fill="none" xmlns="http://www.w3.org/2000/svg">
<path d="M44.9173 0H14.0827C6.30504 0 0 6.30504 0 14.0827V44.9173C0 52.695 6.30504 59 14.0827 59H44.9173C52.695 59 59 52.695 59 44.9173V14.0827C59 6.30504 52.695 0 44.9173 0Z" fill="#FEB100"/>
<path d="M20.0254 19.1393H44.4064V15.0771H22.5738C22.3019 15.0769 22.0362 15.158 21.8109 15.3101C21.5856 15.4623 21.411 15.6784 21.3097 15.9306L20.0254 19.1393Z" fill="white"/>
<path d="M44.4063 29.2962V39.7194C44.4195 40.7679 44.036 41.7828 43.3328 42.5607C42.6296 43.3386 41.6584 43.8221 40.6138 43.9144C40.0581 43.9519 39.5007 43.8748 38.9761 43.6878C38.4514 43.5008 37.9709 43.2079 37.5643 42.8273C37.1576 42.4467 36.8336 41.9866 36.6123 41.4755C36.391 40.9644 36.2772 40.4132 36.2779 39.8563H19.0228C19.0229 40.5897 18.8245 41.3095 18.4485 41.9392C18.0725 42.569 17.5331 43.0852 16.8874 43.4331C16.2417 43.781 15.5139 43.9476 14.7812 43.9152C14.0485 43.8828 13.3382 43.6526 12.7257 43.2491C12.1133 42.8456 11.6215 42.2838 11.3026 41.6233C10.9836 40.9628 10.8495 40.2283 10.9144 39.4978C10.9792 38.7672 11.2407 38.0678 11.671 37.4739C12.1012 36.8799 12.6843 36.4135 13.3583 36.1242L15.9751 29.6827L17.2594 26.462C17.365 26.2161 17.541 26.0069 17.7652 25.8607C17.9895 25.7146 18.2519 25.638 18.5195 25.6407H28.1818L26.974 29.7029H20.9351C20.6644 29.703 20.3999 29.784 20.1754 29.9353C19.9509 30.0866 19.7767 30.3014 19.675 30.5523L17.5412 35.786H32.715C32.9857 35.7858 33.2502 35.7049 33.4746 35.5536C33.6991 35.4023 33.8734 35.1874 33.9751 34.9366L35.9317 30.1336C36.0334 29.8828 36.2076 29.6679 36.4321 29.5166C36.6566 29.3653 36.9211 29.2843 37.1918 29.2842L44.4063 29.2962Z" fill="white"/>
<path d="M14.0156 84H7.4375V72.5781H14.0156V74.5625H9.85938V77.0703H13.7266V79.0547H9.85938V82H14.0156V84ZM15.4453 80.6875V78.7344H19.6406V80.6875H15.4453ZM23.9844 77.6484H24.7656C25.5312 77.6484 26.0964 77.5208 26.4609 77.2656C26.8255 77.0104 27.0078 76.6094 27.0078 76.0625C27.0078 75.5208 26.8203 75.1354 26.4453 74.9062C26.0755 74.6771 25.5 74.5625 24.7188 74.5625H23.9844V77.6484ZM23.9844 79.6172V84H21.5625V72.5781H24.8906C26.4427 72.5781 27.5911 72.862 28.3359 73.4297C29.0807 73.9922 29.4531 74.849 29.4531 76C29.4531 76.6719 29.2682 77.2708 28.8984 77.7969C28.5286 78.3177 28.0052 78.7266 27.3281 79.0234C29.0469 81.5911 30.1667 83.25 30.6875 84H28L25.2734 79.6172H23.9844ZM31.8359 73.0078C31.8359 72.2318 32.2682 71.8438 33.1328 71.8438C33.9974 71.8438 34.4297 72.2318 34.4297 73.0078C34.4297 73.3776 34.3203 73.6667 34.1016 73.875C33.888 74.0781 33.5651 74.1797 33.1328 74.1797C32.2682 74.1797 31.8359 73.7891 31.8359 73.0078ZM34.3203 84H31.9375V75.2656H34.3203V84ZM40.375 84.1562C37.6562 84.1562 36.2969 82.6641 36.2969 79.6797C36.2969 78.1953 36.6667 77.0625 37.4062 76.2812C38.1458 75.4948 39.2057 75.1016 40.5859 75.1016C41.5964 75.1016 42.5026 75.2995 43.3047 75.6953L42.6016 77.5391C42.2266 77.388 41.8776 77.2656 41.5547 77.1719C41.2318 77.0729 40.9089 77.0234 40.5859 77.0234C39.3464 77.0234 38.7266 77.9036 38.7266 79.6641C38.7266 81.3724 39.3464 82.2266 40.5859 82.2266C41.0443 82.2266 41.4688 82.1667 41.8594 82.0469C42.25 81.9219 42.6406 81.7292 43.0312 81.4688V83.5078C42.6458 83.7526 42.2552 83.9219 41.8594 84.0156C41.4688 84.1094 40.974 84.1562 40.375 84.1562ZM47.3516 79.25L48.3906 77.9219L50.8359 75.2656H53.5234L50.0547 79.0547L53.7344 84H50.9844L48.4688 80.4609L47.4453 81.2812V84H45.0625V71.8438H47.4453V77.2656L47.3203 79.25H47.3516Z" fill="#FEB100"/>
</svg>
