<svg width="229" height="297" viewBox="0 0 229 297" fill="none" xmlns="http://www.w3.org/2000/svg">
<g opacity="0.25">
<path fill-rule="evenodd" clip-rule="evenodd" d="M14.5554 11.2389C11.3325 9.64075 7.03609 11.4942 8.82838 15.719C10.7482 20.2431 17.8465 20.299 21.8552 20.2093C21.454 20.1883 20.162 16.0396 19.7196 15.4127C18.4151 13.5634 16.5368 12.2231 14.5554 11.2389ZM51.6889 92.3512C52.502 93.0464 51.7551 92.4164 51.6889 92.3512V92.3512ZM11.4507 31.7014C9.56471 33.1432 9.47476 35.6886 11.0154 37.4116C12.8499 39.4628 16.1997 39.3881 18.7003 39.1882C19.8314 39.0977 25.8709 38.6141 24.4394 37.6257C24.5495 37.6673 24.7795 37.7683 25.0256 37.9055C25.158 38.3894 25.2971 38.8717 25.4421 39.3518C25.4065 39.3726 25.3763 39.3949 25.3383 39.4155C25.3794 39.3975 25.4083 39.378 25.4445 39.3597C26.8969 44.1584 28.9643 48.7275 31.6713 53.0021C30.6585 52.6033 29.6095 52.3014 28.5455 52.167C25.3947 51.7685 18.7664 54.217 22.2908 58.4122C25.6702 62.4339 30.9314 58.1193 34.7667 57.5242C38.4869 62.7163 42.5885 67.692 46.8869 72.5015C46.6236 72.584 46.3924 72.7559 46.2599 73.0235C44.5355 72.1486 42.7386 70.8971 41.1426 70.5583C38.8397 70.07 34.1173 69.774 32.3767 71.8353C30.2359 74.37 32.5307 76.4289 35.06 76.915C38.7276 77.62 43.5286 75.8281 47.0576 74.6174C47.4613 74.6888 47.902 74.5707 48.1653 74.2478C48.2433 74.2222 48.3212 74.1971 48.3971 74.1727C52.7501 78.9587 57.2696 83.5868 61.7616 88.1134C61.7138 88.1109 61.666 88.1079 61.6161 88.1053C60.4443 87.3368 59.1875 86.7063 57.8251 86.376C54.6736 85.6078 50.9656 85.6041 48.4081 87.8844C45.8605 90.155 44.9581 94.126 47.5936 96.6756C52.869 101.779 60.6416 90.1426 63.3026 89.6569C67.8675 94.2087 72.6944 98.4615 77.5971 102.628C77.0403 102.459 76.4693 102.334 75.8791 102.278C71.0716 101.818 59.7872 107.712 65.6873 113.511C70.8288 118.564 76.7798 108.838 80.9232 105.437C85.5432 109.32 90.1884 113.178 94.7031 117.185C92.2407 116.531 89.8611 116.435 87.2214 117.233C84.4901 118.059 80.0827 120.121 81.8094 123.809C83.5655 127.559 88.858 125.853 91.6146 124.662C93.118 124.013 96.1324 121.821 98.7791 120.898C105.983 127.7 112.223 135.191 116.948 144.016C119.897 149.526 122.135 155.413 123.71 161.464C124.716 165.326 126.697 171.812 126.3 176.838C128.191 166.777 124.773 154.693 121.09 145.7C117.704 137.43 112.637 130.171 106.702 123.636C108.191 119.156 120.728 112.695 113.233 108.533C109.253 106.332 105.177 109.984 104.307 113.851C103.71 116.509 104.62 119.848 105.586 122.427C103.719 120.435 101.778 118.507 99.7779 116.644C97.0138 114.067 94.1835 111.566 91.3261 109.096C96.0347 104.673 100.491 92.0269 94.1777 89.9588C84.855 86.9134 89.3438 104.163 89.9942 107.396C90.1789 107.407 90.3228 107.351 90.4287 107.231C90.3763 107.527 90.3154 107.844 90.2417 108.163C84.7727 103.461 79.2227 98.8505 73.8555 94.0357C74.3391 93.6782 75.1078 92.3125 75.712 91.5856C77.0755 89.947 78.3801 88.2352 79.3335 86.3182C80.8395 83.2889 82.2921 78.4568 78.2998 76.6749C73.958 74.7336 71.8947 80.1987 71.8644 83.4589C71.8438 85.7138 72.4579 87.8557 72.7778 90.0658C72.8777 90.7551 72.4927 93.8622 73.4317 92.5256C73.3874 93.0184 73.381 93.3753 73.403 93.6283C72.4394 92.7596 71.4833 91.8814 70.5332 90.9969C70.5772 90.8852 70.6098 90.7634 70.6172 90.6222C70.6681 89.6503 69.6901 89.2759 69.0042 89.5606C67.7505 88.3692 66.5091 87.1628 65.2898 85.9325C62.7056 83.3259 60.0839 80.6449 57.4804 77.9068C58.0452 77.4215 57.8205 76.7496 58.3488 76.2344C58.8762 75.7204 59.915 75.4361 60.5352 74.9586C62.095 73.7571 63.3886 72.0065 64.324 70.2836C65.8685 67.437 67.8644 61.4653 63.3526 60.1085C58.7021 58.7078 56.3416 64.4562 56.0426 68.0502C55.9844 68.7464 56.5057 75.0199 56.9048 77.298C52.0873 72.2094 47.349 66.9298 43.0562 61.5584C44.3578 61.5464 48.048 58.8796 48.794 58.152C50.6143 56.3771 53.5079 52.4553 50.3166 50.3799C47.4792 48.5392 43.9817 51.2053 42.7683 53.7965C42.5688 54.2231 41.8656 58.1943 41.8107 59.976C40.034 57.6982 38.3391 55.407 36.7623 53.1084C35.7107 51.5802 34.728 50.0116 33.8085 48.4097C34.0299 48.2842 34.2381 48.0655 34.4348 47.7934C39.1672 46.9903 45.2007 39.6065 39.642 37.0375C36.9955 35.8159 34.1253 38.3375 32.8289 40.402C32.5633 40.8243 32.1331 42.9478 31.783 44.6227C29.1378 39.3158 27.1164 33.6975 25.5779 27.937C25.9899 27.8347 26.3388 27.52 26.3848 26.9787C28.6824 25.6689 30.4967 24.5782 32.1006 22.0594C33.0971 20.4949 34.8915 16.9205 31.9637 16.0521C28.1536 14.9223 25.7603 20.7418 25.4486 23.6082C25.4123 23.9409 25.4136 24.9086 25.4262 25.7954C25.2939 25.7774 25.1602 25.7794 25.0291 25.8026C24.154 22.2356 23.4555 18.6227 22.9 15.0038C24.9796 14.3345 25.3392 3.41295 23.9546 1.85785C20.8596 -1.62419 18.6761 3.40579 18.8414 6.06423C19.0366 9.1988 20.457 12.0502 22.1483 14.5808C22.3298 14.8488 22.278 14.8358 22.325 14.4625C22.351 14.647 22.4128 14.7832 22.5043 14.8818C22.417 16.5318 22.2469 18.2211 22.3286 19.6811C22.5628 23.8624 23.0499 28.0679 23.757 32.1953C23.929 33.1992 24.1261 34.1948 24.3469 35.1818C22.6754 33.7578 20.4218 32.4926 19.54 32.097C17.2512 31.0711 13.724 29.9635 11.4507 31.7014ZM126.569 176.852C126.463 178.31 126.2 179.645 125.708 180.746C126.077 179.493 126.359 178.19 126.569 176.852Z" fill="#F2F2F2"/>
<g opacity="0.7">
<path opacity="0.7" fill-rule="evenodd" clip-rule="evenodd" d="M77.2475 109.994C86.1984 109.53 97.2682 114.755 98.2232 124.484C98.9169 131.554 98.7021 138.603 99.7756 145.662C100.634 151.303 102.45 156.719 104.926 161.858C107.307 166.799 112.246 171.006 113.53 176.285C114.349 179.648 113.891 184.38 112.762 187.67C111.389 191.671 112.118 191.355 114.854 194.711C120.216 201.289 125.043 208.035 128.457 215.892C133.375 227.208 136.599 240.435 134.774 252.822C134.541 254.395 134.266 260.04 132.1 260.435C129.681 260.876 130.812 257.647 130.941 256.604C131.764 249.95 132.496 244.134 131.503 237.376C127.672 211.301 108.966 194.122 96.7861 171.991C96.1166 170.85 94.703 168.133 93.7202 166.34C92.1686 163.509 90.6087 158.123 88.5082 156.025C84.5522 152.071 88.1891 160.019 88.96 161.537C89.9346 163.456 91.0068 165.497 92.0055 167.179C96.5753 174.975 101.676 183.486 106.396 191.522C85.9838 196.173 71.6084 171.634 66.1307 155.501C61.6176 142.209 56.2178 111.132 77.2475 109.994Z" fill="#69A1AC"/>
<path opacity="0.7" fill-rule="evenodd" clip-rule="evenodd" d="M197.217 85.3109C182.254 86.4981 172.647 96.3717 168.176 110.182C165.766 117.624 165.489 125.27 164.15 132.918C162.135 144.425 157.801 153.145 149.329 161.342C146.705 163.881 144.771 166.488 143.396 169.277C140.668 172.062 138.292 175.213 136.547 179.065C134.318 183.985 133.687 189.888 136.261 194.793C136.953 196.112 138.679 198.759 140.469 199.962C133.77 214.228 130.087 229.853 130.502 245.458C130.753 254.878 131.213 264.301 131.749 273.71C131.894 276.236 132.716 280.408 133.952 276.171C135.083 272.296 133.665 266.212 133.533 262.164C132.895 242.442 132.349 224.51 140.467 206.084C141.319 204.153 142.221 202.237 143.162 200.337C143.217 200.305 143.268 200.266 143.32 200.229C143.356 200.256 143.388 200.286 143.424 200.313C143.484 200.206 143.566 200.079 143.662 199.936C143.932 199.658 144.167 199.306 144.391 198.914C145.111 197.916 145.926 196.744 145.931 196.102C145.931 196.097 145.928 196.089 145.928 196.084C150.954 187.88 156.71 180.128 162.59 172.528C162.546 172.583 168.968 163.839 167.975 168.675C167.496 171.005 162.772 175.443 160.865 177.911C156.644 183.402 151.689 190.36 147.57 197.088C147.016 197.407 146.233 198.97 145.667 200.135C145.354 200.725 145.063 201.32 144.776 201.838C159.368 206.659 170.719 196.948 178.46 185.653C178.469 185.639 178.477 185.626 178.486 185.612C180.841 182.491 183.254 179.392 186.269 176.925C191.298 172.808 196.684 172.082 202.613 170.055C218.783 164.53 225.658 143.574 227.842 128.024C230.305 110.481 218.255 83.5811 197.217 85.3109Z" fill="#89C5CC"/>
<path opacity="0.7" fill-rule="evenodd" clip-rule="evenodd" d="M167.659 36.1843C152.302 52.1678 144.882 74.3371 139.008 95.1786C132.446 118.456 128.112 142.093 127.946 166.295C127.837 182.196 127.404 198.196 128.332 214.078C128.661 219.718 129.224 225.369 130.118 230.949C130.191 231.407 132.192 243.866 134.105 240.963C135.194 239.312 132.055 228.039 131.818 226.161C130.484 215.585 130.174 204.932 130.239 194.279C130.346 176.741 129.829 159.292 131.606 141.819C131.871 139.21 132.081 136.469 132.701 133.917C133.359 131.204 132.521 132.388 134.664 131.314C136.746 130.27 139.32 130.419 141.481 129.109C150.051 123.912 154.436 110.562 157.848 101.803C161.751 91.7863 164.123 81.1051 166.018 70.5641C167.409 62.8194 168.404 55.1217 168.966 47.2773C169.144 44.805 169.154 42.2196 169.64 39.7887C169.771 39.1329 170.428 37.9729 170.404 37.3922C170.354 36.1632 169.612 35.4404 169.551 34.4076C168.908 34.9862 168.277 35.5788 167.659 36.1843Z" fill="#89C5CC"/>
<path opacity="0.7" fill-rule="evenodd" clip-rule="evenodd" d="M83.9204 249.139C83.9204 275.572 105.348 297 131.781 297C158.214 297 179.642 275.572 179.642 249.139" fill="#89C5CC"/>
<path opacity="0.7" fill-rule="evenodd" clip-rule="evenodd" d="M135.622 249.291H133.093C133.268 246.118 133.5 242.951 134.03 239.813C136.059 227.813 142.403 210.189 156.315 208.241C156.829 208.168 158.717 208.156 161.004 208.29C162.088 207.685 163.302 207.318 164.581 207.234C176.426 206.361 189.655 215.917 195.368 225.862C199.975 233.88 199.199 244.408 196.354 252.927C194.448 258.63 190.29 266.761 183.356 266.84C174.681 266.939 174.263 256.217 174.095 249.949C173.872 241.616 172.819 234.356 166.253 228.676C164.722 227.353 163.05 226.189 161.504 224.884C159.083 222.841 156.408 220.75 156.096 217.371C155.666 212.709 158.297 211.87 162.315 212.736C163 212.884 169.899 215.98 168.878 213.533C168.566 212.785 167.427 212.193 165.989 211.749C162.269 211.344 157.832 210.875 156.556 211.156C142.791 214.175 137.431 233.243 136.008 245.358C135.854 246.665 135.73 247.977 135.622 249.291Z" fill="#69A1AC"/>
</g>
</g>
</svg>
