<svg width="40" height="40" viewBox="0 0 40 40" fill="none" xmlns="http://www.w3.org/2000/svg">
<rect width="40" height="40" fill="black"/>
<path d="M25.2129 30.739C25.6692 31.1952 25.6692 31.9349 25.213 32.3911C24.7558 32.8482 24.0144 32.8472 23.5586 32.3888L20.6578 29.4719C20.4857 29.2989 20.1904 29.4207 20.1904 29.6647V32.0544C20.1904 32.6978 19.6688 33.2194 19.0254 33.2194C18.382 33.2194 17.8604 32.6978 17.8604 32.0544V26.2317C17.8604 25.9466 17.9736 25.6732 18.1752 25.4715L23.5574 20.0894C24.0133 19.6335 24.7533 19.6361 25.2059 20.0952C25.6541 20.5497 25.6515 21.2807 25.2001 21.7321L21.0842 25.848C20.8737 26.0585 20.8737 26.3998 21.0842 26.6103L25.2129 30.739Z" fill="white"/>
<path d="M21.9196 16.809C22.3792 17.2621 22.3818 18.0027 21.9255 18.459L15.823 24.5615C15.6355 24.749 15.5301 25.0034 15.5301 25.2686V32.0544C15.5301 32.6978 15.0085 33.2194 14.3651 33.2194C13.7216 33.2194 13.2 32.6978 13.2 32.0544V25.2676C13.2 25.003 13.0951 24.7491 12.9082 24.5617L6.82521 18.4589C6.37019 18.0025 6.37341 17.2629 6.83238 16.8104C7.28729 16.3619 8.01887 16.3645 8.47059 16.8162L13.6592 22.0048C14.0492 22.3948 14.6814 22.3954 15.0722 22.006L20.2828 16.8134C20.7347 16.363 21.4653 16.3611 21.9196 16.809Z" fill="white"/>
</svg>
